<!-- <svg width="9px" height="6px" viewBox="0 0 9 6" version="1.1" xmlns="http://www.w3.org/2000/svg" xmlns:xlink="http://www.w3.org/1999/xlink"> <g id="Symbols" stroke="none" stroke-width="1" fill="none" fill-rule="evenodd"> <g id="checkbox/checked"
transform="translate(-4.000000, -5.000000)" fill="#D0D1D6" fill-rule="nonzero"> <path d="M4.10384615,8.3 C4.03461538,8.24 4,8.15 4,8.09 C4,8.03 4.03461538,7.94 4.10384615,7.88 L4.58846154,7.46 C4.72692308,7.34 4.93461538,7.34 5.07307692,7.46
L5.10769231,7.49 L7.01153846,9.26 C7.08076923,9.32 7.18461538,9.32 7.25384615,9.26 L11.8923077,5.09 L11.9269231,5.09 C12.0653846,4.97 12.2730769,4.97 12.4115385,5.09 L12.8961538,5.51 C13.0346154,5.63 13.0346154,5.81 12.8961538,5.93 L7.35769231,10.91
C7.28846154,10.97 7.21923077,11 7.11538462,11 C7.01153846,11 6.94230769,10.97 6.87307692,10.91 L4.17307692,8.39 L4.10384615,8.3 Z" id="Shape"></path> </g> </g> </svg> -->

<svg width="9px" height="6px" viewBox="0 0 9 6" version="1.1" xmlns="http://www.w3.org/2000/svg" xmlns:xlink="http://www.w3.org/1999/xlink">
  <g stroke="none" stroke-width="1" fill="none" fill-rule="evenodd">
    <g transform="translate(-1016.000000, -515.000000)" fill="#007AFF" fill-rule="nonzero">
      <g transform="translate(972.000000, 32.000000)">
        <g transform="translate(40.000000, 358.000000)">
          <g transform="translate(0.000000, 120.000000)">
            <path
              d="M4.10384615,8.3 C4.03461538,8.24 4,8.15 4,8.09 C4,8.03 4.03461538,7.94 4.10384615,7.88 L4.58846154,7.46 C4.72692308,7.34 4.93461538,7.34 5.07307692,7.46 L5.10769231,7.49 L7.01153846,9.26 C7.08076923,9.32 7.18461538,9.32 7.25384615,9.26 L11.8923077,5.09 L11.9269231,5.09 C12.0653846,4.97 12.2730769,4.97 12.4115385,5.09 L12.8961538,5.51 C13.0346154,5.63 13.0346154,5.81 12.8961538,5.93 L7.35769231,10.91 C7.28846154,10.97 7.21923077,11 7.11538462,11 C7.01153846,11 6.94230769,10.97 6.87307692,10.91 L4.17307692,8.39 L4.10384615,8.3 Z"
              id="Shape"></path>
          </g>
        </g>
      </g>
    </g>
  </g>
</svg>
