<svg width="32px" height="32px" viewBox="0 0 32 32" version="1.1" xmlns="http://www.w3.org/2000/svg" xmlns:xlink="http://www.w3.org/1999/xlink">
  <g stroke="none" stroke-width="1" fill="none" fill-rule="evenodd">
    <g fill="#7A848F" fill-rule="nonzero">
      <path
        d="M30.0727546,12.7050247 L28.8047772,12.7050247 C27.7703745,12.7050247 26.902811,11.8135902 26.902811,10.7555324 C26.902811,10.2223379 27.1280439,9.73913043 27.5284578,9.38089039 L28.3459696,8.58109867 C29.1551394,7.78130695 29.1551394,6.47331424 28.3459696,5.67352252 L26.4857132,3.83233533 C26.1186671,3.46576412 25.5764399,3.24915387 25.0258707,3.24915387 C24.4753016,3.24915387 23.9414163,3.46576412 23.5660283,3.83233533 L22.7818843,4.61546472 C22.4064963,5.03202291 21.9059788,5.25696433 21.3637516,5.25696433 C20.2959812,5.25696433 19.4033918,4.3905233 19.4033918,3.36579016 L19.4033918,2.0911221 C19.4033918,0.966414996 18.4941185,0 17.3596123,0 L14.8236574,0 C13.6891513,0 12.7882199,0.958083832 12.7882199,2.0911221 L12.7882199,3.357459 C12.7882199,4.38219214 11.8956305,5.24863317 10.8278601,5.24863317 C10.2939748,5.24863317 9.80179937,5.02369175 9.44309522,4.63212705 L8.6339254,3.83233533 C8.26687929,3.45743296 7.7246521,3.24915387 7.17408294,3.24915387 C6.62351378,3.24915387 6.08962854,3.46576412 5.71424048,3.83233533 L3.83730018,5.66519136 C3.03647231,6.46498308 3.03647231,7.77297579 3.83730018,8.56443634 L4.62144413,9.34756574 C5.03854197,9.72246811 5.27211677,10.2223379 5.27211677,10.7555324 C5.27211677,11.8219214 4.40455325,12.7050247 3.37015059,12.7050247 L2.10217314,12.7050247 C0.959325044,12.7050247 0,13.5964593 0,14.7294975 L0,15.9958344 L0,17.2621713 C0,18.3868784 0.959325044,19.2866441 2.10217314,19.2866441 L3.37015059,19.2866441 C4.40455325,19.2866441 5.27211677,20.1780786 5.27211677,21.2361364 C5.27211677,21.7693309 5.03854197,22.2692007 4.62144413,22.6441031 L3.83730018,23.4189013 C3.03647231,24.218693 3.03647231,25.5266858 3.83730018,26.3181463 L5.69755657,28.1676647 C6.06460267,28.542567 6.60682987,28.7508461 7.15739903,28.7508461 C7.70796818,28.7508461 8.24185342,28.5342359 8.61724148,28.1676647 L9.4264113,27.3678729 C9.77677349,26.9763083 10.2772909,26.7513668 10.8111762,26.7513668 C11.8789466,26.7513668 12.771536,27.6178079 12.771536,28.642541 L12.771536,29.9088779 C12.771536,31.033585 13.6724674,32 14.8153155,32 L17.3512704,32 C18.4857765,32 19.3867079,31.0419162 19.3867079,29.9088779 L19.3867079,28.642541 C19.3867079,27.6178079 20.2792972,26.7513668 21.3470677,26.7513668 C21.880953,26.7513668 22.3814704,26.9846394 22.7652004,27.3928664 L23.5493443,28.1759958 C23.9247324,28.542567 24.4586177,28.7591773 25.0091868,28.7591773 C25.559756,28.7591773 26.0936412,28.542567 26.4690293,28.1759958 L28.3292857,26.3264775 C29.1301135,25.5266858 29.1301135,24.218693 28.3292857,23.4189013 L27.5117739,22.6191096 C27.1113599,22.2608696 26.8861271,21.7693309 26.8861271,21.2444676 C26.8861271,20.1780786 27.7536906,19.2949753 28.7880933,19.2949753 L30.0560707,19.2949753 C31.1905769,19.2949753 31.9997467,18.4035407 31.9997467,17.2705025 L31.9997467,15.9958344 L31.9997467,14.7294975 C32.0164306,13.5964593 31.2072608,12.7050247 30.0727546,12.7050247 Z M22.7568584,15.9958344 C22.7568584,19.6698776 19.7787798,22.6607654 16.0832929,22.6607654 C12.387806,22.6607654 9.40972739,19.6698776 9.40972739,15.9958344 C9.40972739,12.3217912 12.387806,9.33090341 16.0832929,9.33090341 C19.7787798,9.33090341 22.7568584,12.3217912 22.7568584,15.9958344 Z"
        ></path>
    </g>
  </g>
</svg>
