<svg width="10px" height="10px" viewBox="0 0 10 10" version="1.1" xmlns="http://www.w3.org/2000/svg" xmlns:xlink="http://www.w3.org/1999/xlink">
  <g id="MVP" stroke="none" stroke-width="1" fill="none" fill-rule="evenodd">
    <g id="project-view/project-1" transform="translate(-378.000000, -185.000000)" fill="#7A848F" fill-rule="nonzero">
      <g id="middle" transform="translate(369.000000, 56.000000)">
        <g id="?" transform="translate(0.000000, 120.000000)">
          <g id="btn/icon-add-task">
            <path
              d="M18.4573049,13.302319 L14.6976579,13.302319 L14.6976579,9.54263629 C14.6976579,9.37136735 14.4650917,9 13.9999797,9 C13.5348676,9 13.3023015,9.37138768 13.3023015,9.54263629 L13.3023015,13.3023393 L9.54263408,13.3023393 C9.37138617,13.302319 9,13.5348861 9,13.9999797 C9,14.4650733 9.37138617,14.6976607 9.54263408,14.6976607 L13.3023218,14.6976607 L13.3023218,18.4573637 C13.3023218,18.628592 13.5348676,19 14,19 C14.4651324,19 14.6976782,18.628592 14.6976782,18.4573637 L14.6976782,14.6976607 L18.4573659,14.6976607 C18.6285935,14.6976607 19,14.4651139 19,13.9999797 C19,13.5348454 18.6285528,13.302319 18.4573049,13.302319 Z"
              id="Shape"></path>
          </g>
        </g>
      </g>
    </g>
  </g>
</svg>
